<svg width="4460" height="4460" viewBox="0 0 4460 4460" fill="none" xmlns="http://www.w3.org/2000/svg">
<path fill-rule="evenodd" clip-rule="evenodd" d="M2229.83 0C998.331 0 0 998.331 0 2229.83C0 3461.34 998.331 4459.67 2229.83 4459.67C3461.34 4459.67 4459.67 3461.34 4459.67 2229.83C4459.67 998.331 3461.34 0 2229.83 0ZM320 2229.83C320 1175.06 1175.06 320 2229.83 320C3284.61 320 4139.67 1175.06 4139.67 2229.83C4139.67 3284.61 3284.61 4139.67 2229.83 4139.67C1175.06 4139.67 320 3284.61 320 2229.83ZM1324.9 3135.1C1564.95 3375.14 1890.52 3510 2230 3510H2870C2954.05 3510 3037.27 3493.45 3114.92 3461.28C3192.57 3429.12 3263.12 3381.98 3322.55 3322.55C3381.98 3263.12 3429.12 3192.57 3461.28 3114.92C3493.45 3037.27 3510 2954.05 3510 2870C3510 2785.95 3493.45 2702.73 3461.28 2625.08C3429.12 2547.43 3381.98 2476.88 3322.55 2417.45C3263.12 2358.02 3192.57 2310.88 3114.92 2278.72C3037.27 2246.55 2954.05 2230 2870 2230C2785.13 2230 2703.74 2196.29 2643.73 2136.27C2583.71 2076.26 2550 1994.87 2550 1910C2550 1825.13 2583.71 1743.74 2643.73 1683.73C2703.74 1623.71 2785.13 1590 2870 1590H3190L3510 1270H2870C2785.95 1270 2702.73 1286.55 2625.08 1318.72C2547.43 1350.88 2476.88 1398.02 2417.45 1457.45C2358.02 1516.88 2310.88 1587.43 2278.72 1665.08C2246.55 1742.73 2230 1825.95 2230 1910C2230 1994.05 2246.55 2077.27 2278.72 2154.92C2310.88 2232.57 2358.02 2303.12 2417.45 2362.55C2476.88 2421.98 2547.43 2469.12 2625.08 2501.28C2702.73 2533.45 2785.95 2550 2870 2550C2954.87 2550 3036.26 2583.71 3096.27 2643.73C3156.29 2703.74 3190 2785.13 3190 2870C3190 2954.87 3156.29 3036.26 3096.27 3096.27C3036.26 3156.29 2954.87 3190 2870 3190H2230C1975.39 3190 1731.21 3088.86 1551.18 2908.82C1371.14 2728.79 1270 2484.61 1270 2230C1270 1975.39 1371.14 1731.21 1551.18 1551.18C1731.21 1371.14 1975.39 1270 2230 1270L2550 950H2230C1890.52 950 1564.95 1084.86 1324.9 1324.9C1084.86 1564.95 950 1890.52 950 2230C950 2569.48 1084.86 2895.05 1324.9 3135.1Z" fill="#5385c6"/>
</svg>
